<svg width="5384" height="1076" xmlns="http://www.w3.org/2000/svg" xmlns:xlink="http://www.w3.org/1999/xlink" xml:space="preserve" overflow="hidden"><g transform="translate(-661 -627)"><path d="M809 1078.12 5967.65 1078.13 5967.65 1091.88 809 1091.87ZM5960.74 1064.38 6001.99 1085 5960.74 1105.63Z" fill="#5698D3"/><path d="M809 1085 1068.84 1085" stroke="#1F4E79" stroke-width="13.75" stroke-linejoin="round" stroke-miterlimit="10" fill="none" fill-rule="evenodd"/><path d="M1328 1085 1587.84 1085" stroke="#1F4E79" stroke-width="13.75" stroke-linejoin="round" stroke-miterlimit="10" fill="none" fill-rule="evenodd"/><path d="M1840 1085 2099.84 1085" stroke="#1F4E79" stroke-width="13.75" stroke-linejoin="round" stroke-miterlimit="10" fill="none" fill-rule="evenodd"/><path d="M2360 1085 2619.84 1085" stroke="#1F4E79" stroke-width="13.75" stroke-linejoin="round" stroke-miterlimit="10" fill="none" fill-rule="evenodd"/><path d="M2891 1085 3150.84 1085" stroke="#1F4E79" stroke-width="13.75" stroke-linejoin="round" stroke-miterlimit="10" fill="none" fill-rule="evenodd"/><path d="M3411 1085 3670.84 1085" stroke="#1F4E79" stroke-width="13.75" stroke-linejoin="round" stroke-miterlimit="10" fill="none" fill-rule="evenodd"/><path d="M3922 1085 4181.84 1085" stroke="#1F4E79" stroke-width="13.75" stroke-linejoin="round" stroke-miterlimit="10" fill="none" fill-rule="evenodd"/><text font-family="Meiryo UI,Meiryo UI_MSFontService,sans-serif" font-weight="400" font-size="64" transform="matrix(1 0 0 1 862.897 1302)">2022</text><text font-family="Meiryo UI,Meiryo UI_MSFontService,sans-serif" font-weight="400" font-size="64" transform="matrix(1 0 0 1 2204.3 1296)">2023</text><text font-family="Meiryo UI,Meiryo UI_MSFontService,sans-serif" font-weight="400" font-size="64" transform="matrix(1 0 0 1 2190.53 1192)">Jan.</text><text font-family="Meiryo UI,Meiryo UI_MSFontService,sans-serif" font-weight="400" font-size="64" transform="matrix(1 0 0 1 2445.93 1192)">Feb.</text><text font-family="Meiryo UI,Meiryo UI_MSFontService,sans-serif" font-weight="400" font-size="64" transform="matrix(1 0 0 1 2707 1192)">Mar.</text><text font-family="Meiryo UI,Meiryo UI_MSFontService,sans-serif" font-weight="400" font-size="64" transform="matrix(1 0 0 1 2964.77 1192)">Apr.</text><text font-family="Meiryo UI,Meiryo UI_MSFontService,sans-serif" font-weight="400" font-size="64" transform="matrix(1 0 0 1 3214.56 1192)">May.</text><text font-family="Meiryo UI,Meiryo UI_MSFontService,sans-serif" font-weight="400" font-size="64" transform="matrix(1 0 0 1 3484.22 1192)">Jun.</text><text font-family="Meiryo UI,Meiryo UI_MSFontService,sans-serif" font-weight="400" font-size="64" transform="matrix(1 0 0 1 3741.79 1192)">Jul.</text><text font-family="Meiryo UI,Meiryo UI_MSFontService,sans-serif" font-weight="400" font-size="64" transform="matrix(1 0 0 1 3975.94 1192)">Aug.</text><text font-family="Meiryo UI,Meiryo UI_MSFontService,sans-serif" font-weight="400" font-size="64" transform="matrix(1 0 0 1 4247.81 1192)">Sep.</text><text font-family="Meiryo UI,Meiryo UI_MSFontService,sans-serif" font-weight="400" font-size="64" transform="matrix(1 0 0 1 863.475 1192)">Aug.</text><text font-family="Meiryo UI,Meiryo UI_MSFontService,sans-serif" font-weight="400" font-size="64" transform="matrix(1 0 0 1 1135.34 1192)">Sep.</text><text font-family="Meiryo UI,Meiryo UI_MSFontService,sans-serif" font-weight="400" font-size="64" transform="matrix(1 0 0 1 1401.65 1192)">Oct.</text><text font-family="Meiryo UI,Meiryo UI_MSFontService,sans-serif" font-weight="400" font-size="64" transform="matrix(1 0 0 1 1657.07 1192)">Nov.</text><text font-family="Meiryo UI,Meiryo UI_MSFontService,sans-serif" font-weight="400" font-size="64" transform="matrix(1 0 0 1 1922.5 1192)">Dec.</text><text font-family="Meiryo UI,Meiryo UI_MSFontService,sans-serif" font-weight="400" font-size="64" transform="matrix(1 0 0 1 4514.12 1192)">Oct.</text><path d="M1480.5 950.5 1441.5 1015.5 1402.5 950.5Z" stroke="#AE5A21" stroke-width="9.16667" stroke-linejoin="round" stroke-miterlimit="10" fill="#ED7D31" fill-rule="evenodd"/><path d="M1681.5 950.5 1642.5 1015.5 1603.5 950.5Z" stroke="#AE5A21" stroke-width="9.16667" stroke-linejoin="round" stroke-miterlimit="10" fill="#ED7D31" fill-rule="evenodd"/><path d="M1804.5 950.5 1765.5 1015.5 1726.5 950.5Z" stroke="#C00000" stroke-width="9.16667" stroke-linejoin="round" stroke-miterlimit="10" fill="#ED7D31" fill-rule="evenodd"/><path d="M1900.5 950.5 1861.5 1015.5 1822.5 950.5Z" stroke="#AE5A21" stroke-width="9.16667" stroke-linejoin="round" stroke-miterlimit="10" fill="#ED7D31" fill-rule="evenodd"/><path d="M1967.5 950.5 1928.5 1015.5 1889.5 950.5Z" stroke="#AE5A21" stroke-width="9.16667" stroke-linejoin="round" stroke-miterlimit="10" fill="#ED7D31" fill-rule="evenodd"/><path d="M2022.5 950.5 1983.5 1015.5 1944.5 950.5Z" stroke="#AE5A21" stroke-width="9.16667" stroke-linejoin="round" stroke-miterlimit="10" fill="#ED7D31" fill-rule="evenodd"/><path d="M2075.5 950.5 2036.5 1015.5 1997.5 950.5Z" stroke="#AE5A21" stroke-width="9.16667" stroke-linejoin="round" stroke-miterlimit="10" fill="#ED7D31" fill-rule="evenodd"/><path d="M2113.5 950.5 2074.5 1015.5 2035.5 950.5Z" stroke="#AE5A21" stroke-width="9.16667" stroke-linejoin="round" stroke-miterlimit="10" fill="#ED7D31" fill-rule="evenodd"/><path d="M2192.5 950.5 2153.5 1015.5 2114.5 950.5Z" stroke="#AE5A21" stroke-width="9.16667" stroke-linejoin="round" stroke-miterlimit="10" fill="#ED7D31" fill-rule="evenodd"/><path d="M2323.5 950.5 2285 1015.5 2246.5 950.5Z" stroke="#AE5A21" stroke-width="9.16667" stroke-linejoin="round" stroke-miterlimit="10" fill="#ED7D31" fill-rule="evenodd"/><path d="M2505.5 950.5 2466.5 1015.5 2427.5 950.5Z" stroke="#C00000" stroke-width="9.16667" stroke-linejoin="round" stroke-miterlimit="10" fill="#ED7D31" fill-rule="evenodd"/><path d="M2731.5 950.5 2692.5 1015.5 2653.5 950.5Z" stroke="#AE5A21" stroke-width="9.16667" stroke-linejoin="round" stroke-miterlimit="10" fill="#ED7D31" fill-rule="evenodd"/><path d="M2862.5 950.5 2823.5 1015.5 2784.5 950.5Z" stroke="#AE5A21" stroke-width="9.16667" stroke-linejoin="round" stroke-miterlimit="10" fill="#ED7D31" fill-rule="evenodd"/><path d="M2976.5 950.5 2937.5 1015.5 2898.5 950.5Z" stroke="#AE5A21" stroke-width="9.16667" stroke-linejoin="round" stroke-miterlimit="10" fill="#ED7D31" fill-rule="evenodd"/><path d="M3257.5 950.5 3218.5 1015.5 3179.5 950.5Z" stroke="#C00000" stroke-width="9.16667" stroke-linejoin="round" stroke-miterlimit="10" fill="#ED7D31" fill-rule="evenodd"/><path d="M3496.5 950.5 3457.5 1015.5 3418.5 950.5Z" stroke="#AE5A21" stroke-width="9.16667" stroke-linejoin="round" stroke-miterlimit="10" fill="#ED7D31" fill-rule="evenodd"/><path d="M3645.5 950.5 3606.5 1015.5 3567.5 950.5Z" stroke="#AE5A21" stroke-width="9.16667" stroke-linejoin="round" stroke-miterlimit="10" fill="#ED7D31" fill-rule="evenodd"/><path d="M3805.5 950.5 3767 1015.5 3728.5 950.5Z" stroke="#AE5A21" stroke-width="9.16667" stroke-linejoin="round" stroke-miterlimit="10" fill="#ED7D31" fill-rule="evenodd"/><path d="M3995.5 950.5 3956.5 1015.5 3917.5 950.5Z" stroke="#AE5A21" stroke-width="9.16667" stroke-linejoin="round" stroke-miterlimit="10" fill="#ED7D31" fill-rule="evenodd"/><path d="M4130.5 951.5 4091.5 1014.5 4052.5 951.5Z" stroke="#AE5A21" stroke-width="9.16667" stroke-linejoin="round" stroke-miterlimit="10" fill="#ED7D31" fill-rule="evenodd"/><path d="M4286.5 950.5 4247.5 1015.5 4208.5 950.5Z" stroke="#C00000" stroke-width="9.16667" stroke-linejoin="round" stroke-miterlimit="10" fill="#ED7D31" fill-rule="evenodd"/><path d="M4460.5 950.5 4421.5 1015.5 4382.5 950.5Z" stroke="#AE5A21" stroke-width="9.16667" stroke-linejoin="round" stroke-miterlimit="10" fill="#ED7D31" fill-rule="evenodd"/><path d="M4572.5 950.5 4533.5 1015.5 4494.5 950.5Z" stroke="#AE5A21" stroke-width="9.16667" stroke-linecap="square" stroke-linejoin="round" stroke-miterlimit="10" stroke-dasharray="27.5 9.16667" fill="#ED7D31" fill-rule="evenodd"/><path d="M1723.5 768.5 1762.48 917.678" stroke="#EC792B" stroke-width="3.4375" stroke-linejoin="round" stroke-miterlimit="10" fill="none" fill-rule="evenodd"/><text font-family="Calibri,Calibri_MSFontService,sans-serif" font-weight="400" font-size="83" transform="matrix(1 0 0 1 1603.32 734)">Tokyo</text><path d="M2426.5 768.5 2465.48 917.678" stroke="#EC792B" stroke-width="3.4375" stroke-linejoin="round" stroke-miterlimit="10" fill="none" fill-rule="evenodd"/><text font-family="Calibri,Calibri_MSFontService,sans-serif" font-weight="400" font-size="83" transform="matrix(1 0 0 1 2241.09 734)">San Francisco</text><path d="M3168.5 768.5 3207.48 917.678" stroke="#EC792B" stroke-width="3.4375" stroke-linejoin="round" stroke-miterlimit="10" fill="none" fill-rule="evenodd"/><text font-family="Calibri,Calibri_MSFontService,sans-serif" font-weight="400" font-size="83" transform="matrix(1 0 0 1 2906.31 734)">Sophia Antipolis</text><path d="M4192.5 770.5 4231.48 919.678" stroke="#EC792B" stroke-width="3.4375" stroke-linejoin="round" stroke-miterlimit="10" fill="none" fill-rule="evenodd"/><text font-family="Calibri,Calibri_MSFontService,sans-serif" font-weight="400" font-size="83" transform="matrix(1 0 0 1 4084.36 730)">Sevilla</text><path d="M4072.5 844.5 4090.24 912.394" stroke="#EC792B" stroke-width="3.4375" stroke-linejoin="round" stroke-miterlimit="10" fill="none" fill-rule="evenodd"/><text font-family="Calibri,Calibri_MSFontService,sans-serif" font-weight="400" font-size="64" transform="matrix(1 0 0 1 3747.32 823)">Special Session</text><path d="M4398.5 845.5 4416.24 913.394" stroke="#EC792B" stroke-width="3.4375" stroke-linejoin="round" stroke-miterlimit="10" fill="none" fill-rule="evenodd"/><text font-family="Calibri,Calibri_MSFontService,sans-serif" font-weight="400" font-size="64" transform="matrix(1 0 0 1 4335.77 823)">Special Session</text><text font-family="Calibri,Calibri_MSFontService,sans-serif" font-weight="400" font-size="83" transform="matrix(1 0 0 1 861.326 742)">Election…</text><path d="M1596.5 1435.5 1635.5 1370.5 1674.5 1435.5Z" stroke="#41719C" stroke-width="9.16667" stroke-linejoin="round" stroke-miterlimit="10" fill="#5B9BD5" fill-rule="evenodd"/><path d="M1635.5 1435.5 1674.5 1370.5 1713.5 1435.5Z" stroke="#41719C" stroke-width="9.16667" stroke-linejoin="round" stroke-miterlimit="10" fill="#5B9BD5" fill-rule="evenodd"/><path d="M1681.5 1435.5 1720.5 1370.5 1759.5 1435.5Z" stroke="#41719C" stroke-width="9.16667" stroke-linejoin="round" stroke-miterlimit="10" fill="#5B9BD5" fill-rule="evenodd"/><path d="M1731.5 1435.5 1770 1370.5 1808.5 1435.5Z" stroke="#41719C" stroke-width="9.16667" stroke-linejoin="round" stroke-miterlimit="10" fill="#5B9BD5" fill-rule="evenodd"/><path d="M1762.5 1435.5 1801.5 1370.5 1840.5 1435.5Z" stroke="#41719C" stroke-width="9.16667" stroke-linejoin="round" stroke-miterlimit="10" fill="#5B9BD5" fill-rule="evenodd"/><path d="M2107.5 1435.5 2146.5 1370.5 2185.5 1435.5Z" stroke="#41719C" stroke-width="9.16667" stroke-linejoin="round" stroke-miterlimit="10" fill="#5B9BD5" fill-rule="evenodd"/><path d="M2169.5 1435.5 2208.5 1370.5 2247.5 1435.5Z" stroke="#41719C" stroke-width="9.16667" stroke-linejoin="round" stroke-miterlimit="10" fill="#5B9BD5" fill-rule="evenodd"/><path d="M2231.5 1435.5 2270.5 1370.5 2309.5 1435.5Z" stroke="#41719C" stroke-width="9.16667" stroke-linejoin="round" stroke-miterlimit="10" fill="#5B9BD5" fill-rule="evenodd"/><path d="M2293.5 1435.5 2332.5 1370.5 2371.5 1435.5Z" stroke="#41719C" stroke-width="9.16667" stroke-linejoin="round" stroke-miterlimit="10" fill="#5B9BD5" fill-rule="evenodd"/><path d="M2357.5 1435.5 2396.5 1370.5 2435.5 1435.5Z" stroke="#41719C" stroke-width="9.16667" stroke-linejoin="round" stroke-miterlimit="10" fill="#5B9BD5" fill-rule="evenodd"/><path d="M2449.5 1435.5 2488.5 1370.5 2527.5 1435.5Z" stroke="#41719C" stroke-width="9.16667" stroke-linejoin="round" stroke-miterlimit="10" fill="#5B9BD5" fill-rule="evenodd"/><path d="M2626.5 1435.5 2665.5 1370.5 2704.5 1435.5Z" stroke="#41719C" stroke-width="9.16667" stroke-linejoin="round" stroke-miterlimit="10" fill="#5B9BD5" fill-rule="evenodd"/><path d="M2686.5 1435.5 2725.5 1370.5 2764.5 1435.5Z" stroke="#41719C" stroke-width="9.16667" stroke-linejoin="round" stroke-miterlimit="10" fill="#5B9BD5" fill-rule="evenodd"/><path d="M2722.5 1435.5 2761.5 1370.5 2800.5 1435.5Z" stroke="#41719C" stroke-width="9.16667" stroke-linejoin="round" stroke-miterlimit="10" fill="#5B9BD5" fill-rule="evenodd"/><path d="M2960.5 1435.5 2999.5 1370.5 3038.5 1435.5Z" stroke="#41719C" stroke-width="9.16667" stroke-linejoin="round" stroke-miterlimit="10" fill="#5B9BD5" fill-rule="evenodd"/><path d="M3071.5 1435.5 3110.5 1370.5 3149.5 1435.5Z" stroke="#41719C" stroke-width="9.16667" stroke-linejoin="round" stroke-miterlimit="10" fill="#5B9BD5" fill-rule="evenodd"/><path d="M3431.5 1435.5 3470.5 1370.5 3509.5 1435.5Z" stroke="#41719C" stroke-width="9.16667" stroke-linejoin="round" stroke-miterlimit="10" fill="#5B9BD5" fill-rule="evenodd"/><path d="M3199.5 1435.5 3238.5 1370.5 3277.5 1435.5Z" stroke="#41719C" stroke-width="9.16667" stroke-linejoin="round" stroke-miterlimit="10" fill="#5B9BD5" fill-rule="evenodd"/><path d="M3522.5 1435.5 3561.5 1370.5 3600.5 1435.5Z" stroke="#41719C" stroke-width="9.16667" stroke-linejoin="round" stroke-miterlimit="10" fill="#5B9BD5" fill-rule="evenodd"/><path d="M3669.5 1435.5 3708.5 1370.5 3747.5 1435.5Z" stroke="#41719C" stroke-width="9.16667" stroke-linejoin="round" stroke-miterlimit="10" fill="#5B9BD5" fill-rule="evenodd"/><path d="M4012.5 1435.5 4051.5 1370.5 4090.5 1435.5Z" stroke="#41719C" stroke-width="9.16667" stroke-linejoin="round" stroke-miterlimit="10" fill="#5B9BD5" fill-rule="evenodd"/><path d="M4225.5 1435.5 4264.5 1370.5 4303.5 1435.5Z" stroke="#41719C" stroke-width="9.16667" stroke-linejoin="round" stroke-miterlimit="10" fill="#5B9BD5" fill-rule="evenodd"/><text fill="#C00000" font-family="Calibri,Calibri_MSFontService,sans-serif" font-weight="700" font-size="83" transform="matrix(1 0 0 1 710.907 1012)">BoD</text><text fill="#5B9BD5" font-family="Calibri,Calibri_MSFontService,sans-serif" font-weight="700" font-size="83" transform="matrix(1 0 0 1 711.403 1429)">Gov Comm</text><text font-family="Meiryo UI,Meiryo UI_MSFontService,sans-serif" font-weight="400" font-size="64" transform="matrix(1 0 0 1 1402.78 1646)">Board established</text><text font-family="Meiryo UI,Meiryo UI_MSFontService,sans-serif" font-weight="400" font-size="64" transform="matrix(1 0 0 1 2111.1 1651)">Migrated to W3C, Inc.</text><text font-family="Meiryo UI,Meiryo UI_MSFontService,sans-serif" font-weight="400" font-size="64" transform="matrix(1 0 0 1 2930.22 1651)">Partners migrated</text><text font-family="Meiryo UI,Meiryo UI_MSFontService,sans-serif" font-weight="400" font-size="64" transform="matrix(1 0 0 1 3974.92 1650)">(CEO appointed, 2024 budgets authorized.)</text><path d="M4442 1085 4701.84 1085" stroke="#1F4E79" stroke-width="13.75" stroke-linejoin="round" stroke-miterlimit="10" fill="none" fill-rule="evenodd"/><path d="M4962 1085 5221.84 1085" stroke="#1F4E79" stroke-width="13.75" stroke-linejoin="round" stroke-miterlimit="10" fill="none" fill-rule="evenodd"/><text font-family="Meiryo UI,Meiryo UI_MSFontService,sans-serif" font-weight="400" font-size="64" transform="matrix(1 0 0 1 5303 1192)">Jan.</text><text font-family="Meiryo UI,Meiryo UI_MSFontService,sans-serif" font-weight="400" font-size="64" transform="matrix(1 0 0 1 5558.4 1192)">Feb.</text><text font-family="Meiryo UI,Meiryo UI_MSFontService,sans-serif" font-weight="400" font-size="64" transform="matrix(1 0 0 1 5819.47 1192)">Mar.</text><text font-family="Meiryo UI,Meiryo UI_MSFontService,sans-serif" font-weight="400" font-size="64" transform="matrix(1 0 0 1 4769.54 1192)">Nov.</text><text font-family="Meiryo UI,Meiryo UI_MSFontService,sans-serif" font-weight="400" font-size="64" transform="matrix(1 0 0 1 5034.97 1192)">Dec.</text><path d="M5482 1085 5741.84 1085" stroke="#1F4E79" stroke-width="13.75" stroke-linejoin="round" stroke-miterlimit="10" fill="none" fill-rule="evenodd"/><text font-family="Meiryo UI,Meiryo UI_MSFontService,sans-serif" font-weight="400" font-size="64" transform="matrix(1 0 0 1 5314.75 1302)">2024</text><path d="M5357.5 769.5 5396.48 918.678" stroke="#EC792B" stroke-width="3.4375" stroke-linejoin="round" stroke-miterlimit="10" fill="none" fill-rule="evenodd"/><text font-family="Calibri,Calibri_MSFontService,sans-serif" font-weight="400" font-size="83" transform="matrix(1 0 0 1 5249.09 729)">Malborne</text><path d="M5447.5 950.5 5408.5 1015.5 5369.5 950.5Z" stroke="#C00000" stroke-width="9.16667" stroke-linejoin="round" stroke-miterlimit="10" fill="#ED7D31" fill-rule="evenodd"/><path d="M4587.5 1435.5 4626.5 1370.5 4665.5 1435.5Z" stroke="#41719C" stroke-width="9.16667" stroke-linejoin="round" stroke-miterlimit="10" fill="#5B9BD5" fill-rule="evenodd"/><path d="M4827.5 1435.5 4866.5 1370.5 4905.5 1435.5Z" stroke="#41719C" stroke-width="9.16667" stroke-linejoin="round" stroke-miterlimit="10" fill="#5B9BD5" fill-rule="evenodd"/><path d="M5074.5 1435.5 5113.5 1370.5 5152.5 1435.5Z" stroke="#41719C" stroke-width="9.16667" stroke-linejoin="round" stroke-miterlimit="10" fill="#5B9BD5" fill-rule="evenodd"/><path d="M5631.5 950.5 5592.5 1015.5 5553.5 950.5Z" stroke="#AE5A21" stroke-width="9.16667" stroke-linejoin="round" stroke-miterlimit="10" fill="#ED7D31" fill-rule="evenodd"/><path d="M5369.5 1435.5 5408.5 1370.5 5447.5 1435.5Z" stroke="#41719C" stroke-width="9.16667" stroke-linejoin="round" stroke-miterlimit="10" fill="#5B9BD5" fill-rule="evenodd"/><path d="M5610.5 1435.5 5649.5 1370.5 5688.5 1435.5Z" stroke="#41719C" stroke-width="9.16667" stroke-linejoin="round" stroke-miterlimit="10" fill="#5B9BD5" fill-rule="evenodd"/><path d="M4850.5 950.5 4811.5 1015.5 4772.5 950.5Z" stroke="#AE5A21" stroke-width="9.16667" stroke-linejoin="round" stroke-miterlimit="10" fill="#ED7D31" fill-rule="evenodd"/><path d="M5098.5 950.5 5059.5 1015.5 5020.5 950.5Z" stroke="#AE5A21" stroke-width="9.16667" stroke-linejoin="round" stroke-miterlimit="10" fill="#ED7D31" fill-rule="evenodd"/><path d="M5858.5 950.5 5819.5 1015.5 5780.5 950.5Z" stroke="#AE5A21" stroke-width="9.16667" stroke-linejoin="round" stroke-miterlimit="10" fill="#ED7D31" fill-rule="evenodd"/><path d="M5840.5 1435.5 5879.5 1370.5 5918.5 1435.5Z" stroke="#41719C" stroke-width="9.16667" stroke-linejoin="round" stroke-miterlimit="10" fill="#5B9BD5" fill-rule="evenodd"/></g></svg>