<?xml version="1.0" encoding="UTF-8" standalone="no"?>
<svg
   id="svg26"
   version="1.1"
   viewBox="0 0 188.94724 188.94721"
   height="188.94724"
   width="188.94724"
   xml:space="preserve"
   xmlns="http://www.w3.org/2000/svg"
   xmlns:svg="http://www.w3.org/2000/svg"
   xmlns:rdf="http://www.w3.org/1999/02/22-rdf-syntax-ns#"
   xmlns:cc="http://creativecommons.org/ns#"
   xmlns:dc="http://purl.org/dc/elements/1.1/"><defs
     id="defs21" /><rect
     style="fill:#f1f1f1;fill-opacity:1;stroke:#ffffff;stroke-width:3;stroke-linecap:round;stroke-linejoin:round;stroke-dasharray:none;stroke-opacity:1"
     id="rect1194"
     width="46.029472"
     height="72.312599"
     x="110.59114"
     y="-36.157307"
     transform="rotate(45)" /><rect
     style="fill:#ffffff;fill-opacity:1;stroke:#ffffff;stroke-width:3;stroke-linecap:round;stroke-linejoin:round;stroke-dasharray:none;stroke-opacity:1"
     id="rect3674"
     width="46.029472"
     height="72.312599"
     x="110.59114"
     y="36.157307"
     transform="rotate(45)" /><g
     aria-label="AC"
     id="text1502"
     style="font-size:18.6667px;line-height:125%;font-family:Lato;-inkscape-font-specification:'Lato, Normal';letter-spacing:0px;word-spacing:0px;fill:#103852;stroke-width:1px"><path
       d="m 94.842991,99.622574 h -1.400003 q -0.242667,0 -0.392,-0.121334 -0.149334,-0.121333 -0.224001,-0.308 l -1.250669,-3.229339 h -6.001344 l -1.250669,3.229339 q -0.056,0.168 -0.214667,0.298667 -0.158667,0.130667 -0.392001,0.130667 h -1.400002 l 5.34801,-13.374691 h 1.829336 z m -8.764016,-4.965342 h 4.993342 l -2.100003,-5.441344 q -0.102667,-0.242667 -0.205334,-0.560001 -0.09333,-0.317334 -0.196,-0.681334 -0.09333,0.364 -0.196001,0.690668 -0.09333,0.317334 -0.196,0.560001 z"
       id="path23" /><path
       d="m 105.65102,96.859902 q 0.14934,0 0.26134,0.121334 l 0.71867,0.774668 q -0.82134,0.952002 -1.99734,1.484002 -1.16667,0.532001 -2.82801,0.532001 -1.43733,0 -2.613335,-0.494667 -1.176002,-0.504001 -2.00667,-1.400003 -0.830668,-0.905335 -1.288003,-2.165337 -0.457334,-1.260002 -0.457334,-2.772005 0,-1.512003 0.476001,-2.772005 0.476001,-1.260002 1.334669,-2.165337 0.868002,-0.905335 2.072004,-1.400003 1.203998,-0.504001 2.660008,-0.504001 1.428,0 2.52,0.457335 1.092,0.457334 1.92267,1.241335 l -0.59733,0.830668 q -0.056,0.09333 -0.14934,0.158667 -0.084,0.056 -0.23333,0.056 -0.168,0 -0.41067,-0.177333 -0.24266,-0.186667 -0.63467,-0.410668 -0.392,-0.224 -0.98,-0.401334 -0.588,-0.186667 -1.44667,-0.186667 -1.036,0 -1.89467,0.364001 -0.858665,0.354667 -1.483999,1.036002 -0.616002,0.681334 -0.961336,1.661336 -0.345333,0.980002 -0.345333,2.212004 0,1.250669 0.354667,2.230671 0.364,0.980002 0.980002,1.661336 0.625334,0.672001 1.465339,1.026669 0.84933,0.354667 1.82933,0.354667 0.59734,0 1.07334,-0.06533 0.48533,-0.07467 0.88667,-0.224001 0.41066,-0.149333 0.756,-0.373334 0.35467,-0.233334 0.7,-0.550668 0.15867,-0.14 0.31733,-0.14 z"
       id="path25" /></g><title
     id="title913">Logo for slides for W3C AC 2023</title><metadata
     id="metadata2"><rdf:RDF>
         rdf:about=&quot;&quot;&gt;
      <cc:Work
   rdf:about=""><dc:format>image/svg+xml</dc:format><dc:type
     rdf:resource="http://purl.org/dc/dcmitype/StillImage" /><dc:title>Logo for slides for W3C AC 2023</dc:title><dc:date>2020-12-22</dc:date><dc:creator><cc:Agent><dc:title>Bert Bos</dc:title></cc:Agent></dc:creator><dc:description
     xml:lang="en">W3C logo in a white circle above the words &quot;AC 2023&quot;</dc:description><dc:language>en</dc:language><dc:publisher><cc:Agent><dc:title>http://www.w3.org/</dc:title></cc:Agent></dc:publisher><cc:license
     rdf:resource="https://www.w3.org/Consortium/Legal/2002/ipr-notice-20021231#Copyright" /></cc:Work></rdf:RDF></metadata><!-- A white circle with the W3C logo --><desc
     id="desc15">W3C AC 2023</desc><g
     aria-label="2023"
     id="text1506"
     style="font-weight:900;font-size:21.3333px;line-height:125%;font-family:Lato;-inkscape-font-specification:'Lato, Heavy';letter-spacing:0px;word-spacing:0px;fill:#aa222b;stroke-width:1px"><path
       d="m 25.619778,137.31313 q 1.151998,0 2.06933,0.34133 0.927999,0.33066 1.578665,0.928 0.650665,0.59733 0.991998,1.42933 0.351999,0.82133 0.351999,1.81333 0,0.85333 -0.245333,1.57866 -0.234666,0.72533 -0.650665,1.38667 -0.416,0.65066 -0.970665,1.26933 -0.543999,0.608 -1.162665,1.23733 l -3.039995,3.11466 q 0.586665,-0.17066 1.151998,-0.26666 0.575999,-0.10667 1.077331,-0.10667 h 2.901329 q 0.533333,0 0.842666,0.29866 0.309332,0.288 0.309332,0.768 v 1.92 H 19.902454 v -1.06666 q 0,-0.30934 0.128,-0.66134 0.128,-0.352 0.447999,-0.64 l 4.479993,-4.51199 q 0.575999,-0.576 1.002665,-1.09866 0.426666,-0.52267 0.703999,-1.024 0.277333,-0.512 0.415999,-1.01333 0.138667,-0.512 0.138667,-1.07734 0,-0.92799 -0.448,-1.41866 -0.437332,-0.50133 -1.343997,-0.50133 -0.735999,0 -1.247998,0.39466 -0.501333,0.384 -0.693333,0.96 -0.223999,0.58667 -0.586665,0.77867 -0.362667,0.192 -1.034665,0.0853 l -1.749331,-0.30933 q 0.170666,-1.16267 0.650666,-2.02667 0.490666,-0.86399 1.205331,-1.43999 0.725332,-0.576 1.653331,-0.85333 0.927998,-0.288 1.994663,-0.288 z"
       id="path28" /><path
       d="m 43.582415,145.24911 q 0,2.03733 -0.437333,3.53066 -0.437333,1.49334 -1.215998,2.47467 -0.767999,0.98133 -1.834664,1.46133 -1.055998,0.48 -2.293329,0.48 -1.237332,0 -2.29333,-0.48 -1.045332,-0.48 -1.813331,-1.46133 -0.767998,-0.98133 -1.205331,-2.47467 -0.426666,-1.49333 -0.426666,-3.53066 0,-2.03733 0.426666,-3.53066 0.437333,-1.49333 1.205331,-2.47466 0.767999,-0.98133 1.813331,-1.45067 1.055998,-0.47999 2.29333,-0.47999 1.237331,0 2.293329,0.47999 1.066665,0.46934 1.834664,1.45067 0.778665,0.98133 1.215998,2.47466 0.437333,1.49333 0.437333,3.53066 z m -3.413328,0 q 0,-1.61066 -0.202667,-2.63466 -0.202666,-1.03466 -0.543999,-1.62133 -0.330666,-0.58667 -0.757332,-0.8 -0.426666,-0.224 -0.863998,-0.224 -0.437333,0 -0.863999,0.224 -0.415999,0.21333 -0.746666,0.8 -0.319999,0.58667 -0.522665,1.62133 -0.192,1.024 -0.192,2.63466 0,1.62133 0.192,2.64533 0.202666,1.024 0.522665,1.62133 0.330667,0.58667 0.746666,0.81067 0.426666,0.21333 0.863999,0.21333 0.437332,0 0.863998,-0.21333 0.426666,-0.224 0.757332,-0.81067 0.341333,-0.59733 0.543999,-1.62133 0.202667,-1.024 0.202667,-2.64533 z"
       id="path30" /><path
       d="m 50.366402,137.31313 q 1.151998,0 2.06933,0.34133 0.927999,0.33066 1.578665,0.928 0.650665,0.59733 0.991998,1.42933 0.351999,0.82133 0.351999,1.81333 0,0.85333 -0.245333,1.57866 -0.234666,0.72533 -0.650665,1.38667 -0.416,0.65066 -0.970665,1.26933 -0.543999,0.608 -1.162665,1.23733 l -3.039995,3.11466 q 0.586665,-0.17066 1.151998,-0.26666 0.575999,-0.10667 1.077331,-0.10667 h 2.901329 q 0.533333,0 0.842666,0.29866 0.309332,0.288 0.309332,0.768 v 1.92 H 44.649078 v -1.06666 q 0,-0.30934 0.128,-0.66134 0.128,-0.352 0.447999,-0.64 l 4.479993,-4.51199 q 0.575999,-0.576 1.002665,-1.09866 0.426666,-0.52267 0.703999,-1.024 0.277333,-0.512 0.415999,-1.01333 0.138667,-0.512 0.138667,-1.07734 0,-0.92799 -0.448,-1.41866 -0.437332,-0.50133 -1.343997,-0.50133 -0.735999,0 -1.247998,0.39466 -0.501333,0.384 -0.693333,0.96 -0.223999,0.58667 -0.586665,0.77867 -0.362667,0.192 -1.034665,0.0853 l -1.749331,-0.30933 q 0.170666,-1.16267 0.650666,-2.02667 0.490665,-0.86399 1.205331,-1.43999 0.725332,-0.576 1.653331,-0.85333 0.927998,-0.288 1.994663,-0.288 z"
       id="path32" /><path
       d="m 62.825046,137.31313 q 1.151998,0 2.047996,0.33066 0.895999,0.32 1.514665,0.87467 0.618665,0.55466 0.938665,1.29066 0.319999,0.72533 0.319999,1.536 0,0.736 -0.149333,1.30133 -0.149333,0.55467 -0.447999,0.97067 -0.288,0.40533 -0.725332,0.69333 -0.426666,0.288 -0.981332,0.48 2.581329,0.896 2.581329,3.50932 0,1.23734 -0.447999,2.15467 -0.447999,0.91733 -1.205332,1.52533 -0.746665,0.608 -1.738663,0.91733 -0.991999,0.29867 -2.069331,0.29867 -1.109331,0 -1.97333,-0.23467 -0.863998,-0.24533 -1.535997,-0.74666 -0.671999,-0.512 -1.183998,-1.30134 -0.501333,-0.78933 -0.874666,-1.87733 l 1.471998,-0.59733 q 0.575999,-0.224 1.066665,-0.11733 0.490666,0.10666 0.703999,0.49066 0.479999,0.88534 1.013332,1.29067 0.543999,0.39466 1.269331,0.39466 0.554666,0 0.959998,-0.18133 0.416,-0.192 0.682666,-0.48 0.277333,-0.29866 0.415999,-0.672 0.138667,-0.37333 0.138667,-0.75733 0,-0.50133 -0.07467,-0.896 -0.064,-0.40533 -0.383999,-0.69333 -0.32,-0.288 -0.970665,-0.43733 -0.639999,-0.16 -1.791998,-0.16 v -2.28266 q 0.970666,0 1.567998,-0.14934 0.597332,-0.14933 0.917332,-0.40533 0.330666,-0.26667 0.437333,-0.64 0.106666,-0.37333 0.106666,-0.82133 0,-0.91733 -0.447999,-1.408 -0.437333,-0.50133 -1.343998,-0.50133 -0.735999,0 -1.247998,0.39466 -0.501333,0.384 -0.693332,0.96 -0.224,0.58667 -0.586666,0.77867 -0.362666,0.192 -1.034665,0.0853 l -1.749331,-0.30933 q 0.170667,-1.16267 0.650666,-2.02667 0.490666,-0.86399 1.205331,-1.43999 0.725333,-0.576 1.653331,-0.85333 0.927999,-0.288 1.994664,-0.288 z"
       id="path34" /></g><rect
     style="fill:#eff1f5;fill-opacity:1;stroke:#ffffff;stroke-width:3;stroke-linecap:round;stroke-linejoin:round;stroke-dasharray:none;stroke-opacity:1"
     id="rect1140"
     width="72.312599"
     height="72.312599"
     x="38.278534"
     y="-36.157303"
     transform="rotate(45)" /><g
     id="g1563"
     transform="translate(21.284325,40.496279)"
     style="display:inline;fill:#25599c"><path
       d="M 0,0.82982902 9.5312499,32.999751 h 0.396485 L 15.884766,13.064204 21.84375,32.999751 h 0.396485 L 29.382813,8.8942819 c 1.364136,-4.603602 0.687308,-4.09375 4.757812,-4.09375 h 3.357422 L 30.861328,16.320064 h 2.664063 c 1.721607,0 3.534281,0.621234 4.488281,1.865234 0.133648,0.172602 0.253747,0.360478 0.365234,0.55664 0.02583,0.04519 0.04955,0.09224 0.07422,0.138672 0.104919,0.198597 0.202906,0.404193 0.28711,0.625 0.334699,0.878194 0.503906,1.933265 0.503906,3.167969 0,1.748 -0.384344,3.243281 -1.152344,4.488281 -0.208483,0.337699 -0.430231,0.625068 -0.664062,0.871094 -0.149564,0.157361 -0.305105,0.293883 -0.464844,0.414063 -0.01343,0.01005 -0.02751,0.01951 -0.04102,0.0293 -0.16287,0.11871 -0.328479,0.220536 -0.501953,0.300781 -0.158112,0.07314 -0.323214,0.125 -0.490234,0.166015 -0.04266,0.01039 -0.08568,0.01904 -0.128907,0.02734 -0.171803,0.03328 -0.346243,0.05664 -0.527343,0.05664 -0.0081,0 -0.01537,-0.0019 -0.02344,-0.002 -0.0081,-4.1e-5 -0.01539,-0.0019 -0.02344,-0.002 -0.0041,-3.9e-5 -0.0078,-0.0015 -0.01172,-0.002 -0.0094,-1.18e-4 -0.01799,-0.0018 -0.02734,-0.002 -0.238184,-0.0043 -0.471291,-0.0224 -0.695312,-0.0625 -0.0013,-2.26e-4 -0.0027,2.27e-4 -0.0039,0 -0.06129,-0.01103 -0.117505,-0.03511 -0.177734,-0.04883 -0.01254,-0.0028 -0.02493,-0.0059 -0.03711,-0.0098 -0.01528,-0.0037 -0.02971,-0.0098 -0.04492,-0.01367 -0.152838,-0.03546 -0.306311,-0.06965 -0.451172,-0.125 -0.228292,-0.08723 -0.447099,-0.195603 -0.658203,-0.326172 -0.211107,-0.130346 -0.413662,-0.282644 -0.607425,-0.456807 -0.414242,-0.450082 -0.72618,-0.961707 -1.056641,-1.460938 h -4.054687 c 0.274888,0.816985 0.616402,1.555996 1.009765,2.234375 l -0.01172,0.02148 c 0.04254,0.07684 0.09949,0.148778 0.146484,0.22461 0.280031,0.454876 0.581602,0.886262 0.917969,1.27539 0.299571,0.346562 0.620593,0.666438 0.964844,0.960938 0.171266,0.146622 0.346692,0.28372 0.52539,0.412109 0,0 0.002,0.002 0.002,0.002 0.177989,0.127783 0.35957,0.245774 0.544922,0.355469 0.115046,0.06809 0.233683,0.126384 0.351563,0.1875 0.01577,0.0082 0.03106,0.01734 0.04687,0.02539 0.05701,0.03134 0.113495,0.06405 0.171875,0.0918 0.0018,8.68e-4 0.004,0.0011 0.0059,0.002 0.191896,0.09099 0.386651,0.17313 0.585937,0.246093 0.0027,10e-4 0.0051,0.0029 0.0078,0.0039 0,0 0.002,0 0.002,0 0.19779,0.07217 0.398564,0.134947 0.603516,0.189453 0.004,0.0011 0.0077,0.0029 0.01172,0.0039 0,0 0.002,0 0.002,0 0.20397,0.05382 0.412003,0.09842 0.623046,0.134766 0.0051,8.82e-4 0.01049,0.0011 0.01563,0.002 0.188465,0.03187 0.380106,0.05416 0.574218,0.07227 0.0046,4.32e-4 0.009,0.0015 0.01367,0.002 0.0071,0.0014 0.01417,0.0032 0.02148,0.0039 0.01093,0.0019 0.02197,0.0029 0.0332,0.0039 0,0 0.002,0 0.002,0 0.0053,4.46e-4 0.01031,0.0015 0.01563,0.002 0,0 0.002,0 0.002,0 0.116936,0.0096 0.238074,0.0091 0.357422,0.01367 0.02479,9.55e-4 0.04934,0.0032 0.07422,0.0039 0.0156,8.44e-4 0.03113,0.0016 0.04687,0.002 0.06026,0.0036 0.120272,0.0077 0.181641,0.0078 0.0079,2.2e-5 0.0155,0 0.02344,0 0.178244,0 0.34802,-0.01694 0.521484,-0.02734 v -0.0098 c 0.186606,-0.01341 0.378263,-0.0155 0.560547,-0.03906 0.02559,-0.0035 0.05069,-0.0079 0.07617,-0.01172 0.342257,-0.04769 0.6738,-0.119812 0.996094,-0.210937 1.50249,-0.424817 2.793149,-1.310157 3.861328,-2.679688 1.549,-1.986 2.324218,-4.434656 2.324218,-7.347656 0,-2.356 -0.530843,-4.407297 -1.589843,-6.154297 -0.804245,-1.326738 -1.898881,-2.339405 -3.283203,-3.041015 -0.04289,-0.02175 -0.08941,-0.03939 -0.132813,-0.06055 -0.178828,-0.087 -0.358606,-0.17317 -0.546875,-0.25 -0.233487,-0.09575 -0.473854,-0.183791 -0.722656,-0.263672 2.324763,-4.0255221 4.690291,-8.0277571 6.978515,-12.07421898 H 31.773438 c -3.624299,0 -4.352809,0.61764488 -5.611329,4.89648488 L 21.84375,20.409907 16.083985,0.82982902 h -4.167969 l 0.953125,3.19921888 c 0.794004,2.664306 0.723496,3.97222 -0.02148,6.4941401 L 9.9277349,20.409907 4.1699219,0.82982902 Z"
       style="fill:#25599c"
       id="path1599" /><path
       style="fill:#25599c"
       id="path6"
       d="m 64.887547,0.83037592 c -0.819,0 -1.554,0.29499998 -2.111,0.86099998 -0.591,0.6 -0.92,1.376 -0.92,2.178 0,0.802 0.313,1.545 0.887,2.128 0.583,0.591 1.334,0.912 2.145,0.912 0.793,0 1.562,-0.321 2.161,-0.903 0.574,-0.557 0.886,-1.301 0.886,-2.137 0,-0.811 -0.321,-1.57 -0.878,-2.136 -0.583,-0.591 -1.343,-0.90299998 -2.17,-0.90299998 z m 2.643,3.06499998 c 0,0.701 -0.271,1.351 -0.769,1.832 -0.523,0.507 -1.173,0.777 -1.891,0.777 -0.675,0 -1.342,-0.278 -1.84,-0.785 -0.498,-0.506 -0.777,-1.157 -0.777,-1.849 0,-0.692 0.287,-1.368 0.802,-1.891 0.481,-0.49 1.131,-0.751 1.84,-0.751 0.726,0 1.376,0.271 1.883,0.785 0.49,0.489 0.752,1.148 0.752,1.882 z m -2.558,-1.807 h -1.3 v 3.445 h 0.65 v -1.469 h 0.642 l 0.701,1.469 h 0.726 l -0.769,-1.571 c 0.498,-0.101 0.785,-0.439 0.785,-0.928 0,-0.625 -0.473,-0.946 -1.435,-0.946 z m -0.119,0.422 c 0.608,0 0.886,0.169 0.886,0.591 0,0.405 -0.278,0.549 -0.87,0.549 h -0.549 v -1.14 z" /><path
       style="fill:#25599c"
       id="path8"
       d="m 59.774547,0.64937592 0.338,2.05349998 c 0.315497,1.916783 -0.0054,2.710653 -0.8575,4.341 l -1.1955,2.2875 c 0,0 -0.918,-1.941 -2.443,-3.015 -1.285,-0.905 -2.122,-1.102 -3.431,-0.832 -1.681,0.347 -3.587,2.357 -4.419,4.8350001 -0.995,2.965 -1.005,4.4 -1.04,5.718 -0.056,2.113 0.277,3.362 0.277,3.362 0,0 -1.451,-2.686 -1.438,-6.62 0.009,-2.8080001 0.451,-5.3540001 1.75,-7.8670001 1.143,-2.209 2.842,-3.535 4.35,-3.691 1.559,-0.161 2.791,0.59 3.743,1.404 0.999,0.854 2.01,2.72 2.01,2.72 z" /><path
       style="fill:#25599c"
       id="path10"
       d="m 60.069547,23.887376 c 0,0 -1.057,1.889 -1.715,2.617 -0.659,0.728 -1.837,2.01 -3.292,2.651 -1.456,0.641 -2.218,0.762 -3.656,0.624 -1.437,-0.138 -2.773,-0.97 -3.241,-1.317 -0.468,-0.347 -1.664,-1.369 -2.339,-2.322 -0.676,-0.954 -1.733,-2.859 -1.733,-2.859 0,0 0.589,1.911 0.958,2.721 0.212,0.466 0.864,1.894 1.79,3.136 0.862,1.159 2.539,3.154 5.086,3.604 2.547,0.451 4.297,-0.693 4.73,-0.971 0.433,-0.277 1.432309,-0.93042 2.010243,-1.548482 0.603066,-0.644938 0.923083,-1.107393 1.325111,-1.920775 0.292057,-0.590889 0.544763,-1.977304 0.381146,-2.829243 z" /></g><rect
     style="fill:none;fill-opacity:0.469753;stroke:#ffffff;stroke-width:3;stroke-linecap:round;stroke-linejoin:round;stroke-dasharray:none;stroke-opacity:1"
     id="rect3694"
     width="72.312599"
     height="72.312599"
     x="156.62062"
     y="-36.157303"
     transform="rotate(45)" /><rect
     style="fill:#2173a6;fill-opacity:1;stroke:#ffffff;stroke-width:3;stroke-linecap:round;stroke-linejoin:round;stroke-dasharray:none;stroke-opacity:1"
     id="rect3753"
     width="72.312599"
     height="72.312599"
     x="156.62062"
     y="36.157307"
     transform="rotate(45)" /><rect
     style="fill:none;fill-opacity:0.33;stroke:#ffffff;stroke-width:3;stroke-linecap:round;stroke-linejoin:round;stroke-dasharray:none;stroke-opacity:1"
     id="rect3795"
     width="46.029472"
     height="72.312599"
     x="-82.186768"
     y="-110.59114"
     transform="rotate(135)" /></svg>
